<?xml version="1.0" standalone="no"?>
<!DOCTYPE svg PUBLIC "-//W3C//DTD SVG 20010904//EN"
 "http://www.w3.org/TR/2001/REC-SVG-20010904/DTD/svg10.dtd">
<svg version="1.0" xmlns="http://www.w3.org/2000/svg"
 width="3000.000000pt" height="3000.000000pt" viewBox="0 0 3000.000000 3000.000000"
 preserveAspectRatio="xMidYMid meet">
<metadata>
Created by potrace 1.14, written by Peter Selinger 2001-2017
</metadata>
<g transform="translate(0.000000,3000.000000) scale(0.100000,-0.100000)"
fill="#000000" stroke="none">
<path d="M0 15000 l0 -15000 15000 0 15000 0 0 15000 0 15000 -15000 0 -15000
0 0 -15000z m9415 9396 c1793 -4 3536 -8 3873 -10 l613 -2 30 -30 c16 -17 31
-41 33 -54 35 -228 36 -478 22 -5800 l-7 -2604 -27 -29 -27 -29 -2225 6
c-5138 14 -5878 17 -5935 22 -289 25 -277 23 -313 57 l-33 32 5 950 c3 522 8
1884 11 3025 3 1141 8 2602 10 3245 l6 1170 32 30 32 31 320 -2 c176 -1 1787
-4 3580 -8z m12565 -32 l2565 -6 30 -29 30 -29 -3 -2408 c-1 -1324 -5 -3212
-8 -4197 l-5 -1790 -32 -32 c-31 -30 -36 -31 -167 -43 -131 -12 -2563 -14
-4475 -5 -385 2 -1403 5 -2261 5 l-1562 2 -31 32 -31 32 5 809 c2 446 7 2261
10 4035 5 2725 8 3245 21 3355 25 231 24 225 58 257 l31 29 1630 -6 c897 -2
2784 -8 4195 -11z m-12290 -10568 c1455 -3 2999 -6 3433 -7 l787 -1 31 -28 31
-28 -1 -943 c-2 -1433 -11 -5365 -16 -6325 -3 -732 -6 -876 -21 -1020 -19
-177 -25 -193 -80 -222 -12 -6 -246 -9 -679 -6 -826 4 -5252 14 -6673 15
-1145 1 -1075 -2 -1103 51 -10 19 -8 2186 6 5028 2 481 5 1441 6 2132 l2 1257
33 32 c34 33 35 33 264 60 52 6 96 12 97 13 1 1 280 1 620 0 340 -1 1808 -5
3263 -8z m10615 -46 c44 -5 105 -12 135 -15 30 -3 71 -8 90 -10 19 -3 145 -18
280 -35 135 -17 295 -42 355 -56 61 -14 126 -29 145 -33 35 -8 261 -86 430
-148 18 -7 129 -47 270 -98 145 -51 234 -95 337 -163 48 -32 123 -81 166 -108
43 -27 104 -66 135 -86 31 -20 67 -43 79 -50 86 -51 216 -137 257 -172 66 -55
563 -553 635 -636 31 -36 76 -97 100 -135 25 -39 65 -101 90 -140 276 -428
348 -554 391 -678 15 -45 37 -107 49 -137 11 -30 39 -109 62 -175 22 -66 61
-176 86 -245 71 -195 74 -211 108 -515 8 -71 26 -231 40 -355 31 -260 32 -336
11 -515 -9 -71 -18 -148 -21 -170 -2 -22 -9 -80 -15 -130 -11 -97 -18 -156
-26 -221 -2 -22 -7 -65 -10 -95 -10 -113 -26 -171 -105 -389 -17 -47 -37 -105
-45 -129 -16 -52 -103 -293 -145 -403 -47 -125 -73 -177 -151 -295 -40 -61
-99 -153 -132 -205 -68 -108 -81 -129 -169 -265 -96 -147 -119 -174 -427 -481
-290 -288 -340 -335 -410 -381 -34 -23 -63 -41 -65 -41 -3 0 -34 -19 -69 -42
-36 -24 -100 -65 -143 -92 -43 -27 -100 -64 -128 -81 -325 -209 -281 -189
-910 -410 -99 -34 -193 -68 -210 -75 -60 -23 -218 -48 -470 -75 -27 -3 -90
-10 -140 -15 -49 -6 -135 -15 -190 -21 -55 -5 -125 -13 -155 -17 -70 -10 -208
-7 -285 7 -33 5 -94 13 -135 17 -41 4 -82 8 -90 9 -8 2 -44 6 -80 10 -36 3
-96 10 -135 15 -38 5 -95 12 -125 15 -101 9 -144 16 -225 35 -74 18 -129 36
-415 140 -58 21 -181 66 -275 99 -221 80 -237 88 -635 345 -58 38 -138 89
-178 115 -163 103 -244 174 -529 461 -160 162 -302 309 -316 325 -26 33 -170
252 -233 355 -21 36 -43 70 -47 75 -16 20 -124 192 -181 288 -39 66 -77 147
-95 203 -22 68 -103 294 -121 339 -6 17 -13 37 -15 45 -2 8 -20 60 -40 115
-70 194 -87 252 -115 396 -16 81 -36 211 -45 290 -9 79 -22 196 -30 259 -60
482 -60 494 -20 810 8 63 26 216 40 340 27 238 42 315 82 420 13 36 26 72 28
80 2 8 27 78 56 155 75 204 129 355 141 395 20 70 91 193 237 412 28 43 51 80
51 83 0 7 125 200 195 302 67 97 710 743 739 743 4 0 39 21 79 48 40 26 81 52
92 59 11 7 64 40 119 75 54 35 106 68 115 73 24 14 129 82 176 114 50 34 171
92 250 121 33 12 83 31 110 41 79 29 181 64 310 109 66 23 150 53 188 67 77
28 157 48 237 58 30 3 71 8 90 11 134 16 408 47 530 60 80 8 150 16 155 18 14
5 136 -2 230 -14z"/>
<path d="M8050 22012 c-151 -2 -183 -10 -202 -47 -13 -23 -15 -238 -19 -2420
l-4 -1530 435 -2 c239 -1 1123 -3 1964 -4 l1529 -1 2 24 c2 12 6 160 9 328 4
168 9 373 11 455 2 83 7 265 10 405 7 338 15 658 20 855 2 88 7 446 10 795 3
349 8 746 10 882 3 188 2 247 -8 250 -7 2 -822 6 -1812 7 -990 1 -1802 3
-1805 4 -3 1 -70 1 -150 -1z"/>
<path d="M18212 21443 c-1 -301 -2 -1189 -2 -1973 l0 -1424 27 -28 28 -27
1938 -7 1937 -6 1 108 c1 60 2 132 4 159 1 28 5 181 9 340 4 160 9 326 11 370
2 44 7 186 10 315 6 254 12 457 20 670 3 74 8 550 10 1058 l5 923 -32 30 -32
29 -966 1 c-531 0 -1415 3 -1966 5 l-1001 5 -1 -548z"/>
<path d="M22463 19630 c0 -36 2 -50 4 -32 2 17 2 47 0 65 -2 17 -4 3 -4 -33z"/>
<path d="M22454 19535 c-3 -8 -4 -20 -2 -27 3 -7 7 -1 10 15 6 29 1 36 -8 12z"/>
<path d="M22454 19360 c0 -74 1 -105 3 -67 2 37 2 97 0 135 -2 37 -3 6 -3 -68z"/>
<path d="M22441 19004 c0 -11 3 -14 6 -6 3 7 2 16 -1 19 -3 4 -6 -2 -5 -13z"/>
<path d="M22442 18940 c0 -14 2 -19 5 -12 2 6 2 18 0 25 -3 6 -5 1 -5 -13z"/>
<path d="M7807 11609 c-2 -9 -5 -607 -6 -1330 -1 -723 -4 -1600 -6 -1949 l-4
-635 31 -32 31 -32 1321 0 c726 -1 1600 -2 1941 -4 l620 -2 1 85 c1 119 14
645 19 825 3 83 7 269 10 415 3 146 7 348 10 450 3 102 7 390 10 640 3 250 8
693 11 983 l6 529 -32 33 -32 33 -1582 2 c-869 1 -1753 2 -1963 3 -343 2 -382
0 -386 -14z"/>
<path d="M20225 11583 c-16 -2 -95 -10 -175 -19 -145 -16 -307 -48 -324 -65
-6 -5 -16 -9 -23 -9 -24 0 -288 -102 -348 -134 -106 -58 -318 -196 -375 -244
-138 -119 -334 -328 -382 -408 -25 -42 -42 -68 -48 -74 -10 -10 -31 -45 -36
-62 -4 -10 -10 -18 -15 -18 -5 0 -9 -5 -9 -11 0 -6 -11 -25 -24 -42 -36 -47
-72 -130 -146 -332 -10 -27 -25 -69 -34 -92 -35 -94 -48 -165 -76 -408 -19
-166 -20 -246 -6 -350 3 -22 10 -85 16 -140 14 -134 37 -247 65 -320 12 -33
38 -100 56 -150 36 -97 127 -250 199 -335 62 -73 223 -236 290 -292 69 -57
316 -219 390 -254 30 -15 98 -42 150 -60 52 -19 102 -37 110 -41 8 -3 20 -7
25 -9 6 -1 34 -12 64 -23 57 -22 168 -41 378 -66 139 -17 238 -18 338 -4 33 5
89 12 125 15 95 9 254 40 292 58 18 8 85 32 148 54 63 22 138 50 165 63 63 29
339 202 385 242 63 53 282 271 319 317 20 25 39 47 44 48 4 2 7 8 7 13 0 5 16
31 35 58 19 26 35 51 35 55 0 3 21 36 46 73 77 113 96 156 196 443 42 123 52
169 68 320 6 53 13 107 15 120 16 77 14 200 -6 375 -23 199 -44 295 -102 460
-83 233 -97 261 -248 485 -80 119 -123 170 -236 282 -76 75 -151 148 -168 161
-72 57 -195 131 -255 152 -36 13 -105 38 -155 55 -155 56 -214 69 -420 95
-185 23 -273 28 -350 18z"/>
</g>
</svg>
