<?xml version="1.0" standalone="no"?>
<!DOCTYPE svg PUBLIC "-//W3C//DTD SVG 20010904//EN"
 "http://www.w3.org/TR/2001/REC-SVG-20010904/DTD/svg10.dtd">
<svg version="1.0" xmlns="http://www.w3.org/2000/svg"
 width="700.000000pt" height="700.000000pt" viewBox="0 0 700.000000 700.000000"
 preserveAspectRatio="xMidYMid meet">
<metadata>
Created by potrace 1.14, written by Peter Selinger 2001-2017
</metadata>
<g transform="translate(0.000000,700.000000) scale(0.100000,-0.100000)"
fill="#000000" stroke="none">
<path d="M3280 6994 c-19 -2 -84 -9 -145 -14 -578 -56 -1180 -283 -1660 -625
-237 -169 -531 -446 -709 -670 -416 -521 -673 -1147 -748 -1820 -17 -155 -17
-575 0 -730 52 -469 198 -931 418 -1327 290 -523 731 -983 1239 -1294 439
-269 920 -432 1460 -496 145 -17 576 -17 730 0 822 91 1556 447 2131 1034 203
206 348 390 487 618 274 449 433 916 499 1465 16 136 16 592 0 730 -86 725
-352 1347 -803 1885 -122 145 -351 370 -494 484 -510 407 -1117 661 -1775 742
-117 15 -553 27 -630 18z m1569 -1400 c34 -10 69 -30 98 -57 152 -139 114
-376 -72 -458 -40 -18 -74 -23 -188 -27 l-138 -5 -34 -40 c-49 -57 -76 -136
-83 -239 l-5 -88 -927 0 -927 0 -5 88 c-7 103 -34 182 -83 239 l-34 40 -138 5
c-155 6 -209 22 -272 81 -144 137 -87 393 101 458 50 17 117 18 1354 19 1152
0 1306 -2 1353 -16z m-397 -1065 c7 -8 45 -40 83 -71 96 -78 230 -216 304
-317 68 -92 146 -219 139 -226 -15 -16 -146 -38 -218 -38 -109 1 -170 17 -417
114 -247 97 -334 119 -469 119 -130 0 -230 -25 -465 -119 -390 -154 -452 -155
-819 -8 -186 74 -284 105 -371 119 l-77 12 31 45 c48 67 209 232 290 297 40
32 77 63 82 69 6 7 17 14 25 18 8 3 432 5 942 4 825 -2 929 -4 940 -18z
m-2199 -568 c42 -11 158 -52 259 -92 272 -107 329 -122 473 -122 144 0 204 14
432 104 251 98 328 121 424 126 118 8 201 -12 447 -108 271 -106 339 -123 477
-123 82 0 132 6 194 23 46 12 84 21 85 19 2 -2 12 -25 23 -53 61 -146 114
-364 129 -530 7 -79 7 -79 -14 -65 -12 8 -120 90 -242 183 -142 108 -229 167
-244 167 -23 0 -122 -71 -450 -323 -70 -54 -134 -101 -141 -103 -7 -3 -140 92
-296 210 -304 232 -313 236 -366 193 -121 -100 -537 -407 -547 -404 -6 3 -130
96 -276 207 -146 111 -275 207 -287 212 -12 6 -32 8 -45 4 -13 -3 -126 -85
-252 -181 -126 -96 -231 -175 -234 -175 -9 0 10 157 33 275 31 152 90 326 160
466 l55 109 63 0 c35 0 98 -9 140 -19z m305 -815 c122 -93 222 -173 222 -177
0 -7 -100 -84 -466 -360 -6 -5 -107 65 -252 176 l-243 184 243 184 c200 152
245 183 258 173 9 -6 116 -87 238 -180z m2390 0 l233 -177 -242 -185 c-153
-116 -246 -181 -253 -176 -6 5 -114 86 -239 181 -125 95 -227 177 -225 182 6
19 473 366 483 359 6 -4 115 -87 243 -184z m-1203 7 c129 -98 233 -181 232
-185 -1 -3 -109 -88 -239 -188 l-238 -181 -237 181 c-131 100 -239 185 -240
188 -3 10 459 361 475 361 7 1 118 -79 247 -176z m-749 -341 c421 -321 477
-362 504 -362 21 0 97 52 306 211 152 116 282 213 288 215 6 2 137 -93 291
-211 215 -164 287 -214 309 -215 23 0 78 37 243 163 118 89 223 168 234 176
20 14 21 14 14 -35 -25 -180 -104 -443 -178 -594 l-42 -85 -50 -12 c-138 -31
-261 -9 -531 96 -215 83 -284 105 -387 121 -158 26 -275 2 -582 -115 -261
-100 -297 -110 -425 -110 -123 0 -163 11 -431 115 -97 38 -214 79 -260 90
-101 26 -235 36 -306 23 l-51 -10 -26 72 c-47 133 -113 418 -104 446 2 6 107
-69 233 -165 181 -138 236 -176 260 -176 24 1 90 46 310 215 154 118 283 214
286 214 3 1 46 -30 95 -67z m-731 -680 c39 -10 147 -49 240 -85 291 -113 374
-133 528 -124 122 6 211 31 456 126 237 92 286 104 401 105 116 0 179 -16 427
-113 241 -94 306 -111 441 -118 61 -3 112 -8 112 -10 0 -16 -160 -215 -238
-295 l-95 -98 325 0 c348 0 351 0 363 -52 5 -21 1 -33 -19 -52 l-25 -26 -1681
0 -1681 0 -25 26 c-20 19 -24 31 -19 52 12 52 15 52 364 52 l326 0 -86 88
c-107 108 -170 186 -241 293 -53 81 -138 230 -138 242 0 22 166 15 265 -11z"/>
</g>
</svg>
